<svg width="25" height="20" viewBox="0 0 25 20" fill="none" xmlns="http://www.w3.org/2000/svg">
<path d="M22.0938 4.99325C22.0938 5.20574 22.0938 5.42391 22.0938 5.64215C22.0938 12.3157 17.0169 20 7.73598 20C4.99346 20.0047 2.30769 19.2191 0 17.7372C0.398338 17.7851 0.799088 17.8101 1.20029 17.812C3.47397 17.8111 5.68188 17.0488 7.47182 15.6468C6.41792 15.6274 5.3965 15.2785 4.5509 14.6492C3.70529 14.0199 3.07793 13.1416 2.75673 12.1377C3.51853 12.2909 4.3058 12.2614 5.05398 12.0516C3.91173 11.822 2.88422 11.204 2.1461 10.3026C1.40798 9.40111 1.00477 8.27177 1.00505 7.10668V7.04358C1.70909 7.43527 2.49698 7.65186 3.3023 7.67524C2.23415 6.96009 1.47823 5.86527 1.1881 4.61299C0.897958 3.3607 1.09537 2.04484 1.74019 0.932814C3.00871 2.49198 4.59049 3.76746 6.38313 4.67665C8.17577 5.58583 10.1393 6.10855 12.1467 6.21086C11.89 5.1259 11.9996 3.98635 12.4586 2.97025C12.9175 1.95416 13.6999 1.11859 14.6836 0.593919C15.6674 0.0692475 16.7972 -0.114999 17.8967 0.0699425C18.9961 0.254884 20.0035 0.798708 20.7614 1.61635C21.8913 1.39339 22.975 0.979647 23.9661 0.392994C23.5916 1.56224 22.8033 2.55474 21.7492 3.18422C22.74 3.06182 23.7075 2.79473 24.6208 2.39159C23.9404 3.40396 23.0869 4.28855 22.0996 5.00474L22.0938 4.99325Z" fill="white"/>
</svg>
